<svg width="1440" height="960" viewBox="0 0 1440 960" fill="none" xmlns="http://www.w3.org/2000/svg">
<rect width="1440" height="960" fill="#F5F5F5"/>
<rect width="1440" height="960" fill="white"/>
<g filter="url(#filter0_d_0_1)">
<rect x="776" y="232" width="160" height="104" stroke="#3037CD" stroke-width="8"/>
<path d="M802.219 317V251.545H830.599C835.585 251.545 839.772 252.217 843.16 253.559C846.569 254.901 849.136 256.798 850.862 259.248C852.609 261.698 853.483 264.585 853.483 267.909C853.483 270.317 852.95 272.511 851.885 274.493C850.841 276.474 849.371 278.136 847.474 279.479C845.578 280.8 843.362 281.716 840.827 282.227V282.866C843.639 282.973 846.196 283.687 848.497 285.008C850.798 286.308 852.631 288.108 853.994 290.409C855.358 292.689 856.04 295.374 856.04 298.463C856.04 302.043 855.102 305.228 853.227 308.019C851.374 310.81 848.732 313.005 845.301 314.603C841.871 316.201 837.78 317 833.028 317H802.219ZM819.989 302.81H828.298C831.281 302.81 833.518 302.256 835.01 301.148C836.501 300.018 837.247 298.357 837.247 296.162C837.247 294.628 836.896 293.328 836.192 292.263C835.489 291.197 834.488 290.388 833.188 289.834C831.91 289.28 830.365 289.003 828.554 289.003H819.989V302.81ZM819.989 278.009H827.276C828.831 278.009 830.205 277.763 831.398 277.273C832.592 276.783 833.518 276.08 834.179 275.164C834.861 274.227 835.202 273.087 835.202 271.744C835.202 269.72 834.477 268.175 833.028 267.11C831.58 266.023 829.747 265.48 827.531 265.48H819.989V278.009Z" fill="#3037CD"/>
<path d="M890.855 318.79C884.911 318.768 879.776 317.394 875.45 314.667C871.125 311.94 867.79 308.009 865.447 302.874C863.103 297.739 861.942 291.581 861.963 284.401C861.984 277.199 863.156 271.084 865.479 266.055C867.822 261.027 871.146 257.202 875.45 254.582C879.776 251.961 884.911 250.651 890.855 250.651C896.8 250.651 901.935 251.972 906.26 254.614C910.585 257.234 913.92 261.059 916.263 266.087C918.607 271.116 919.768 277.22 919.747 284.401C919.747 291.624 918.575 297.803 916.232 302.938C913.888 308.072 910.553 312.004 906.228 314.731C901.924 317.437 896.8 318.79 890.855 318.79ZM890.855 304.344C893.923 304.344 896.438 302.746 898.398 299.55C900.379 296.332 901.359 291.283 901.338 284.401C901.338 279.905 900.891 276.229 899.996 273.374C899.101 270.519 897.865 268.41 896.288 267.046C894.712 265.661 892.901 264.969 890.855 264.969C887.787 264.969 885.283 266.524 883.344 269.635C881.406 272.746 880.415 277.668 880.372 284.401C880.351 288.982 880.788 292.753 881.683 295.714C882.577 298.655 883.813 300.828 885.39 302.234C886.988 303.641 888.81 304.344 890.855 304.344Z" fill="#3037CD"/>
</g>
<defs>
<filter id="filter0_d_0_1" x="768" y="228" width="176" height="120" filterUnits="userSpaceOnUse" color-interpolation-filters="sRGB">
<feFlood flood-opacity="0" result="BackgroundImageFix"/>
<feColorMatrix in="SourceAlpha" type="matrix" values="0 0 0 0 0 0 0 0 0 0 0 0 0 0 0 0 0 0 127 0" result="hardAlpha"/>
<feOffset dy="4"/>
<feGaussianBlur stdDeviation="2"/>
<feComposite in2="hardAlpha" operator="out"/>
<feColorMatrix type="matrix" values="0 0 0 0 0 0 0 0 0 0 0 0 0 0 0 0 0 0 0.25 0"/>
<feBlend mode="normal" in2="BackgroundImageFix" result="effect1_dropShadow_0_1"/>
<feBlend mode="normal" in="SourceGraphic" in2="effect1_dropShadow_0_1" result="shape"/>
</filter>
</defs>
</svg>
